<?xml version="1.0" encoding="UTF-8"?>
<svg id="Camada_1" data-name="Camada 1" xmlns="http://www.w3.org/2000/svg" viewBox="0 0 1080 1080">
  <defs>
    <style>
      .cls-1 {
        fill: #0070b8;
      }
    </style>
  </defs>
  <path class="cls-1" d="M825.57,671.1l80.36-.13-8.26,96.04,77.83,1.13-.16,69.19-137.37.22-1.07,137.94-732.89-.06.04-871.1,871.45-.07.2,207.23-71.84.77-136.25,303.27-63.63,151.42,81.39.71,40.2-96.57ZM683.59,684.81l15.73-57.23c27.07-98.46-75.61-109.97-100.18-167-6.99-16.23,3.84-37.18,6.79-53.04,4.7-25.24,21.49-40.09,48.98-37.03,5.06.56,15.18,4.08,18.63,7.4,3.45,3.32,5.07,14.71,3.74,19.43l-18.31,65.12,81.92-.05c12.4-47.89,49.53-133.15-24.07-151.94-69.35-17.7-162.89-3.08-187.11,79.29-16.15,54.93-34.9,106.72,18.82,149.31,18.73,14.85,74.37,52.64,69.61,79.15-4.09,22.81-9.36,43.47-15.14,63.93-5.45,19.26-22.61,26.25-42.2,27-10.13.39-29.78-7.55-26.58-20.69l17.59-72.17-81.25.71c-11.59,47.83-48.69,133.34,24.71,151.8,72.76,18.3,164.59,2.21,188.29-84ZM249.19,377.58l17.11-66.9-55.43-.82-17.68,67.71h56ZM407.19,377.93l75.34-.79,16.35-67.12-156.21.44-116.38,457.85,79.88-.05,101.01-390.33Z"/>
  <polygon class="cls-1" points="975.99 975.01 868.76 975.74 868.09 869.63 975.24 868.8 975.99 975.01"/>
  <path class="cls-1" d="M913.57,603.99l-59.36.14,71.68-168.54c1.78,57.2-8.13,106.45-12.33,168.41Z"/>
</svg>